<mxfile host="app.diagrams.net" modified="2023-07-11T05:31:24.787Z" agent="Mozilla/5.0 (Macintosh; Intel Mac OS X 10_15_7) AppleWebKit/537.36 (KHTML, like Gecko) Chrome/109.0.0.0 Safari/537.36" version="21.6.1" etag="qRG9k7XiymGKSBO4f7BR" type="github">
  <diagram name="Page-1" id="eaPRT_ml55ByJp7L_sPj">
    <mxGraphModel>
      <root>
        <mxCell id="0" />
        <mxCell id="1" parent="0" />
      </root>
    </mxGraphModel>
  </diagram>
</mxfile>
